# xmcd
#
# Track frame offsets:
#	150
#	13009
#	25357
#	40492
#	58065
#	69185
#	82302
#	96642
#	110862
#	123375
#	138142
#	150070
#	160887
#	174770
#	188575
#	199590
#	213140
#	225882
#	239142
#	254550
#
# Disc length: 3628 seconds
#
# Revision: 0
# Processed by: cddbd v1.5.2PL0 Copyright (c) Steve Scherf et al.
# Submitted via: audiograbber 1.83.01
#
DISCID=0e0e2a14
DTITLE=Festa Italiana - Vol.3
DYEAR=2000
DGENRE=Italian Classics
TTITLE0=Sandra e Massimo - Fiorellin del Prato
TTITLE1=Sandra - Moretto Moretto
TTITLE2=Gli Assi del Folclore - Simpatia
TTITLE3=Sandra e Massimo - La Pinotta
TTITLE4=Sandra e Luciano - Bocce e Barbera
TTITLE5=Gruppo Favolosi'60 - Una Spina e Una Rosa
TTITLE6=Privitera - La Zita
TTITLE7=E. Parise - Calà Calabria
TTITLE8=Sandra - La Filanda
TTITLE9=Sandra e Massimo - La Bella La Va Al Fosso
TTITLE10=Segio Mauri - Valencia
TTITLE11=Musiani - Contenta Tu Contento Anch'io
TTITLE12=Pilade - Fin Che La Barca Và
TTITLE13=Sandra e Luciano - Il Pittore
TTITLE14=Privitera - Benvenuti a Taormina
TTITLE15=Pilade - That's Amore
TTITLE16=Sandra e Massimo - Avanti e Indré
TTITLE17=Massimo - La Rosina Bella
TTITLE18=Gli Assi del Folclore - Tavola Grande
TTITLE19=Tony Verga - Figli Miei, Vita mia Beguine
EXTD=
EXTT0=
EXTT1=
EXTT2=
EXTT3=
EXTT4=
EXTT5=
EXTT6=
EXTT7=
EXTT8=
EXTT9=
EXTT10=
EXTT11=
EXTT12=
EXTT13=
EXTT14=
EXTT15=
EXTT16=
EXTT17=
EXTT18=
EXTT19=
PLAYORDER=
